{"title":"Rajjo 2013 Hindi Movie XviD DVDSCRRIP-GOPI SAHI-PDR-TEAM ICTV","uid":9210026,"size":730415233,"categoryP":"video","categoryS":"movies","magnet":"?xt=urn:btih:ffd27d3000737e4a1b14e7841b38f868a516e236&amp;dn=Rajjo+2013+Hindi+Movie+XviD+DVDSCRRIP-GOPI+SAHI-PDR-TEAM+ICTV&amp;tr=udp%3A%2F%2Ftracker.openbittorrent.com%3A80&amp;tr=udp%3A%2F%2Fopen.demonii.com%3A1337&amp;tr=udp%3A%2F%2Ftracker.coppersurfer.tk%3A6969&amp;tr=udp%3A%2F%2Fexodus.desync.com%3A6969","seeders":1,"leechers":1,"uploader":"jatt13","files":2,"time":1384764886,"description":"[img]http://imageshack.us/a/img5/2880/v2od.jpg[/img]\n[img]http://ia.media-imdb.com/images/M/MV5BMTU5OTM5NTA4Nl5BMl5BanBnXkFtZTgwNzIzNTUzMDE@._V1_SY317_CR4,0,214,317_.jpg[/img]\n[url]http://www.imdb.com/title/tt2438764/[/url]\nVideo\nID                             : 0\nFormat                         : MPEG-4 Visual\nFormat profile                 : Advanced Simple@L5\nFormat settings, BVOP          : Yes\nFormat settings, QPel          : No\nFormat settings, GMC           : No warppoints\nFormat settings, Matrix        : Default (H.263)\nCodec ID                       : XVID\nCodec ID/Hint                  : XviD\nDuration                       : 2h 14mn\nBit rate                       : 639 Kbps\nWidth                          : 640 pixels\nHeight                         : 272 pixels\nDisplay aspect ratio           : 2.35:1\nFrame rate                     : 29.970 fps\nColor space                    : YUV\nChroma subsampling             : 4:2:0\nBit depth                      : 8 bits\nScan type                      : Progressive\nCompression mode               : Lossy\nBits/(Pixel*Frame)             : 0.123\nStream size                    : 613 MiB (88%)\nWriting library                : XviD 1.2.1 (UTC 2008-12-04)\n\nAudio\nID                             : 1\nFormat                         : MPEG Audio\nFormat version                 : Version 1\nFormat profile                 : Layer 3\nMode                           : Joint stereo\nMode extension                 : MS Stereo\nCodec ID                       : 55\nCodec ID/Hint                  : MP3\nDuration                       : 2h 14mn\nBit rate mode                  : Constant\nBit rate                       : 80.0 Kbps\nChannel count                  : 2 channels\nSampling rate                  : 32.0 KHz\nCompression mode               : Lossy\nStream size                    : 76.7 MiB (11%)\nAlignment                      : Aligned on interleaves\nInterleave, duration           : 133 ms (4.00 video frames)\nInterleave, preload duration   : 216 ms\nTitle                          : VTS_01_1 T80 2_0ch 192Kbps DELAY 0ms\nWriting library                : LAME3.99r\nEncoding settings              : -m j -V 4 -q 2 -lowpass 13.5 -b 80\n[img]http://imageshack.us/a/img689/4614/pz7l.jpg[/img]\n[img]http://imageshack.us/a/img191/7073/ghub.png[/img]\n[img]http://imageshack.us/a/img197/6061/notl.png[/img]\n[img]http://imageshack.us/a/img843/5356/02rg.png[/img]\n[img]http://imageshack.us/a/img850/4667/yn54.png[/img]\n[img]http://imageshack.us/a/img401/9166/90ee.png[/img]\n[img]http://imageshack.us/a/img43/9004/14rs.png[/img]\n[img]http://imageshack.us/a/img30/2991/lkl2.png[/img]","torrent":{"xt":"urn:btih:ffd27d3000737e4a1b14e7841b38f868a516e236","amp;dn":"Rajjo+2013+Hindi+Movie+XviD+DVDSCRRIP-GOPI+SAHI-PDR-TEAM+ICTV","amp;tr":["udp%3A%2F%2Ftracker.openbittorrent.com%3A80","udp%3A%2F%2Fopen.demonii.com%3A1337","udp%3A%2F%2Ftracker.coppersurfer.tk%3A6969","udp%3A%2F%2Fexodus.desync.com%3A6969"],"infoHash":"ffd27d3000737e4a1b14e7841b38f868a516e236","infoHashBuffer":{"type":"Buffer","data":[255,210,125,48,0,115,126,74,27,20,231,132,27,56,248,104,165,22,226,54]},"announce":[],"urlList":[]}}